Rubik-Italic.ufo
<glyph name="ampersand" format="2">
  <advance width="674"/>
  <unicode hex="0026"/>
  <guideline x="-150" y="366" angle="0"/>
  <guideline x="-150" y="-10" angle="0"/>
  <guideline x="-150" y="550" angle="0"/>
  <guideline x="135"/>
  <guideline x="439"/>
  <guideline x="-90"/>
  <outline>
    <contour>
      <point x="230" y="-10" type="curve" smooth="yes"/>
      <point x="328" y="-10"/>
      <point x="410" y="30"/>
      <point x="472" y="84" type="curve"/>
      <point x="530" y="10" type="line" smooth="yes"/>
      <point x="535" y="4"/>
      <point x="542" y="0"/>
      <point x="556" y="0" type="curve" smooth="yes"/>
      <point x="578" y="0" type="line" smooth="yes"/>
      <point x="591" y="0"/>
      <point x="600" y="7"/>
      <point x="602" y="19" type="curve" smooth="yes"/>
      <point x="603" y="24"/>
      <point x="601" y="30"/>
      <point x="597" y="35" type="curve" smooth="yes"/>
      <point x="519" y="131" type="line"/>
      <point x="587" y="208"/>
      <point x="621" y="283"/>
      <point x="636" y="344" type="curve" smooth="yes"/>
      <point x="639" y="357"/>
      <point x="632" y="366"/>
      <point x="619" y="366" type="curve" smooth="yes"/>
      <point x="600" y="366" type="line" smooth="yes"/>
      <point x="587" y="366"/>
      <point x="577" y="357"/>
      <point x="573" y="344" type="curve" smooth="yes"/>
      <point x="550" y="274"/>
      <point x="519" y="221"/>
      <point x="483" y="176" type="curve"/>
      <point x="331" y="363" type="line"/>
      <point x="421" y="408"/>
      <point x="508" y="457"/>
      <point x="528" y="550" type="curve" smooth="yes"/>
      <point x="548" y="642"/>
      <point x="489" y="710"/>
      <point x="388" y="710" type="curve" smooth="yes"/>
      <point x="287" y="710"/>
      <point x="199" y="637"/>
      <point x="180" y="550" type="curve" smooth="yes"/>
      <point x="168" y="491"/>
      <point x="183" y="447"/>
      <point x="236" y="375" type="curve"/>
      <point x="152" y="331"/>
      <point x="71" y="278"/>
      <point x="51" y="184" type="curve" smooth="yes"/>
      <point x="28" y="72"/>
      <point x="101" y="-10"/>
    </contour>
    <contour>
      <point x="243" y="50" type="curve" smooth="yes"/>
      <point x="161" y="50"/>
      <point x="96" y="97"/>
      <point x="114" y="184" type="curve" smooth="yes"/>
      <point x="129" y="253"/>
      <point x="194" y="294"/>
      <point x="269" y="332" type="curve"/>
      <point x="436" y="129" type="line"/>
      <point x="372" y="75"/>
      <point x="303" y="50"/>
    </contour>
    <contour>
      <point x="298" y="407" type="curve"/>
      <point x="245" y="478"/>
      <point x="235" y="510"/>
      <point x="243" y="550" type="curve" smooth="yes"/>
      <point x="256" y="612"/>
      <point x="316" y="650"/>
      <point x="375" y="650" type="curve" smooth="yes"/>
      <point x="437" y="650"/>
      <point x="478" y="611"/>
      <point x="465" y="550" type="curve" smooth="yes"/>
      <point x="451" y="485"/>
      <point x="378" y="447"/>
    </contour>
  </outline>
</glyph>
<glyph name="six" format="2">
  <advance width="582"/>
  <unicode hex="0036"/>
  <outline>
    <contour>
      <point x="247" y="-10" type="curve" smooth="yes"/>
      <point x="407" y="-10"/>
      <point x="515" y="105"/>
      <point x="540" y="226" type="curve" smooth="yes"/>
      <point x="566" y="347"/>
      <point x="507" y="461"/>
      <point x="347" y="461" type="curve" smooth="yes"/>
      <point x="325" y="461"/>
      <point x="298" y="458"/>
      <point x="277" y="453" type="curve"/>
      <point x="473" y="665" type="line" smooth="yes"/>
      <point x="475" y="668"/>
      <point x="479" y="672"/>
      <point x="480" y="678" type="curve" smooth="yes"/>
      <point x="483" y="690"/>
      <point x="477" y="700"/>
      <point x="465" y="700" type="curve" smooth="yes"/>
      <point x="446" y="700" type="line" smooth="yes"/>
      <point x="428" y="700"/>
      <point x="418" y="687"/>
      <point x="411" y="680" type="curve"/>
      <point x="155" y="403" type="line" smooth="yes"/>
      <point x="125" y="370"/>
      <point x="71" y="304"/>
      <point x="54" y="226" type="curve" smooth="yes"/>
      <point x="29" y="105"/>
      <point x="87" y="-10"/>
    </contour>
    <contour>
      <point x="260" y="50" type="curve" smooth="yes"/>
      <point x="166" y="50"/>
      <point x="93" y="111"/>
      <point x="117" y="226" type="curve" smooth="yes"/>
      <point x="141" y="340"/>
      <point x="240" y="401"/>
      <point x="334" y="401" type="curve" smooth="yes"/>
      <point x="428" y="401"/>
      <point x="501" y="340"/>
      <point x="477" y="226" type="curve" smooth="yes"/>
      <point x="453" y="111"/>
      <point x="354" y="50"/>
    </contour>
  </outline>
</glyph>
<glyph name="seven" format="2">
  <advance width="487"/>
  <unicode hex="0037"/>
  <outline>
    <contour>
      <point x="104" y="0" type="curve" smooth="yes"/>
      <point x="125" y="0" type="line" smooth="yes"/>
      <point x="140" y="0"/>
      <point x="149" y="14"/>
      <point x="157" y="25" type="curve" smooth="yes"/>
      <point x="537" y="625" type="line" smooth="yes"/>
      <point x="545" y="638"/>
      <point x="549" y="646"/>
      <point x="552" y="662" type="curve" smooth="yes"/>
      <point x="555" y="677" type="line" smooth="yes"/>
      <point x="558" y="691"/>
      <point x="551" y="700"/>
      <point x="537" y="700" type="curve" smooth="yes"/>
      <point x="151" y="700" type="line"/>
      <point x="138" y="700"/>
      <point x="127" y="691"/>
      <point x="124" y="677" type="curve" smooth="yes"/>
      <point x="121" y="662" type="line" smooth="yes"/>
      <point x="118" y="649"/>
      <point x="125" y="640"/>
      <point x="138" y="640" type="curve" smooth="yes"/>
      <point x="479" y="640" type="line"/>
      <point x="93" y="31" type="line" smooth="yes"/>
      <point x="91" y="28"/>
      <point x="89" y="24"/>
      <point x="89" y="22" type="curve" smooth="yes"/>
      <point x="86" y="10"/>
      <point x="92" y="0"/>
    </contour>
  </outline>
</glyph>
<glyph name="nine" format="2">
  <advance width="572"/>
  <unicode hex="0039"/>
  <outline>
    <contour>
      <point x="152" y="0" type="curve" smooth="yes"/>
      <point x="172" y="0" type="line" smooth="yes"/>
      <point x="190" y="0"/>
      <point x="200" y="13"/>
      <point x="207" y="20" type="curve"/>
      <point x="475" y="311" type="line" smooth="yes"/>
      <point x="505" y="344"/>
      <point x="553" y="400"/>
      <point x="570" y="479" type="curve" smooth="yes"/>
      <point x="594" y="590"/>
      <point x="541" y="710"/>
      <point x="381" y="710" type="curve" smooth="yes"/>
      <point x="221" y="710"/>
      <point x="119" y="590"/>
      <point x="95" y="479" type="curve" smooth="yes"/>
      <point x="71" y="368"/>
      <point x="123" y="249"/>
      <point x="283" y="249" type="curve" smooth="yes"/>
      <point x="305" y="249"/>
      <point x="330" y="252"/>
      <point x="350" y="257" type="curve"/>
      <point x="145" y="35" type="line" smooth="yes"/>
      <point x="142" y="32"/>
      <point x="138" y="28"/>
      <point x="137" y="22" type="curve" smooth="yes"/>
      <point x="134" y="10"/>
      <point x="140" y="0"/>
    </contour>
    <contour>
      <point x="296" y="309" type="curve" smooth="yes"/>
      <point x="202" y="309"/>
      <point x="136" y="375"/>
      <point x="158" y="479" type="curve" smooth="yes"/>
      <point x="180" y="584"/>
      <point x="274" y="650"/>
      <point x="368" y="650" type="curve" smooth="yes"/>
      <point x="462" y="650"/>
      <point x="529" y="584"/>
      <point x="507" y="479" type="curve" smooth="yes"/>
      <point x="485" y="375"/>
      <point x="390" y="309"/>
    </contour>
  </outline>
</glyph>
<glyph name="question" format="2">
  <advance width="503"/>
  <unicode hex="003F"/>
  <guideline x="-150" y="710" angle="0"/>
  <guideline x="-150" y="605" angle="0"/>
  <guideline x="154"/>
  <guideline x="86"/>
  <guideline x="120"/>
  <outline>
    <contour>
      <point x="229" y="143" type="curve"/>
      <point x="246" y="143" type="line" smooth="yes"/>
      <point x="259" y="143"/>
      <point x="270" y="152"/>
      <point x="272" y="165" type="curve" smooth="yes"/>
      <point x="276" y="181"/>
      <point x="279" y="197"/>
      <point x="282" y="213" type="curve" smooth="yes"/>
      <point x="308" y="334"/>
      <point x="487" y="383"/>
      <point x="526" y="523" type="curve" smooth="yes"/>
      <point x="553" y="617"/>
      <point x="504" y="710"/>
      <point x="357" y="710" type="curve" smooth="yes"/>
      <point x="230" y="710"/>
      <point x="121" y="622"/>
      <point x="95" y="511" type="curve" smooth="yes"/>
      <point x="92" y="499"/>
      <point x="100" y="491"/>
      <point x="112" y="491" type="curve" smooth="yes"/>
      <point x="128" y="491" type="line" smooth="yes"/>
      <point x="138" y="491"/>
      <point x="149" y="495"/>
      <point x="156" y="513" type="curve" smooth="yes"/>
      <point x="195" y="615"/>
      <point x="267" y="652"/>
      <point x="345" y="652" type="curve" smooth="yes"/>
      <point x="423" y="652"/>
      <point x="493" y="605"/>
      <point x="465" y="522" type="curve" smooth="yes"/>
      <point x="430" y="417"/>
      <point x="254" y="366"/>
      <point x="221" y="213" type="curve" smooth="yes"/>
      <point x="218" y="197"/>
      <point x="215" y="181"/>
      <point x="211" y="165" type="curve" smooth="yes"/>
      <point x="209" y="152"/>
      <point x="216" y="143"/>
    </contour>
    <contour>
      <point x="186" y="0" type="curve" smooth="yes"/>
      <point x="224" y="0" type="line" smooth="yes"/>
      <point x="237" y="0"/>
      <point x="249" y="9"/>
      <point x="252" y="22" type="curve" smooth="yes"/>
      <point x="260" y="60" type="line" smooth="yes"/>
      <point x="263" y="73"/>
      <point x="255" y="83"/>
      <point x="242" y="83" type="curve" smooth="yes"/>
      <point x="204" y="83" type="line" smooth="yes"/>
      <point x="191" y="83"/>
      <point x="180" y="73"/>
      <point x="177" y="60" type="curve" smooth="yes"/>
      <point x="169" y="22" type="line" smooth="yes"/>
      <point x="166" y="9"/>
      <point x="173" y="0"/>
    </contour>
  </outline>
</glyph>
<glyph name="at" format="2">
  <advance width="826"/>
  <unicode hex="0040"/>
  <guideline x="-150" y="193" angle="0"/>
  <guideline x="-150" y="470" angle="0"/>
  <guideline x="-150" y="684" angle="0"/>
  <guideline x="-150" y="135" angle="0"/>
  <guideline x="336"/>
  <guideline x="228"/>
  <guideline x="269"/>
  <guideline x="619"/>
  <guideline x="381"/>
  <outline>
    <contour>
      <point x="330" y="-113" type="curve" smooth="yes"/>
      <point x="486" y="-113"/>
      <point x="576" y="-63"/>
      <point x="641" y="-8" type="curve" smooth="yes"/>
      <point x="644" y="-4"/>
      <point x="647" y="0"/>
      <point x="648" y="6" type="curve" smooth="yes"/>
      <point x="651" y="18"/>
      <point x="644" y="27"/>
      <point x="632" y="27" type="curve" smooth="yes"/>
      <point x="606" y="27" type="line" smooth="yes"/>
      <point x="594" y="27"/>
      <point x="585" y="19"/>
      <point x="579" y="15" type="curve" smooth="yes"/>
      <point x="550" y="-4"/>
      <point x="494" y="-55"/>
      <point x="343" y="-55" type="curve" smooth="yes"/>
      <point x="180" y="-55"/>
      <point x="101" y="35"/>
      <point x="117" y="192" type="curve" smooth="yes"/>
      <point x="121" y="229"/>
      <point x="140" y="319"/>
      <point x="151" y="353" type="curve" smooth="yes"/>
      <point x="204" y="512"/>
      <point x="319" y="603"/>
      <point x="482" y="603" type="curve" smooth="yes"/>
      <point x="681" y="603"/>
      <point x="744" y="513"/>
      <point x="722" y="353" type="curve" smooth="yes"/>
      <point x="715" y="299"/>
      <point x="701" y="247"/>
      <point x="696" y="231" type="curve" smooth="yes"/>
      <point x="689" y="202"/>
      <point x="668" y="137"/>
      <point x="608" y="137" type="curve" smooth="yes"/>
      <point x="570" y="137"/>
      <point x="548" y="167"/>
      <point x="561" y="230" type="curve" smooth="yes"/>
      <point x="607" y="448" type="line" smooth="yes"/>
      <point x="610" y="461"/>
      <point x="603" y="470"/>
      <point x="590" y="470" type="curve" smooth="yes"/>
      <point x="573" y="470" type="line" smooth="yes"/>
      <point x="560" y="470"/>
      <point x="549" y="461"/>
      <point x="546" y="448" type="curve" smooth="yes"/>
      <point x="542" y="429" type="line"/>
      <point x="529" y="451"/>
      <point x="506" y="478"/>
      <point x="450" y="478" type="curve" smooth="yes"/>
      <point x="352" y="478"/>
      <point x="270" y="405"/>
      <point x="242" y="273" type="curve" smooth="yes"/>
      <point x="214" y="141"/>
      <point x="264" y="69"/>
      <point x="363" y="69" type="curve" smooth="yes"/>
      <point x="439" y="69"/>
      <point x="481" y="111"/>
      <point x="503" y="138" type="curve"/>
      <point x="509" y="124"/>
      <point x="530" y="79"/>
      <point x="596" y="79" type="curve" smooth="yes"/>
      <point x="677" y="79"/>
      <point x="730" y="129"/>
      <point x="756" y="225" type="curve" smooth="yes"/>
      <point x="760" y="241"/>
      <point x="776" y="304"/>
      <point x="784" y="358" type="curve" smooth="yes"/>
      <point x="817" y="553"/>
      <point x="724" y="661"/>
      <point x="495" y="661" type="curve" smooth="yes"/>
      <point x="295" y="661"/>
      <point x="154" y="548"/>
      <point x="91" y="358" type="curve" smooth="yes"/>
      <point x="80" y="324"/>
      <point x="59" y="224"/>
      <point x="55" y="187" type="curve" smooth="yes"/>
      <point x="35" y="-7"/>
      <point x="129" y="-113"/>
    </contour>
    <contour>
      <point x="375" y="127" type="curve" smooth="yes"/>
      <point x="299" y="127"/>
      <point x="287" y="198"/>
      <point x="303" y="273" type="curve" smooth="yes"/>
      <point x="321" y="358"/>
      <point x="361" y="420"/>
      <point x="437" y="420" type="curve" smooth="yes"/>
      <point x="516" y="420"/>
      <point x="527" y="358"/>
      <point x="509" y="273" type="curve" smooth="yes"/>
      <point x="491" y="188"/>
      <point x="454" y="127"/>
    </contour>
  </outline>
</glyph>
<glyph name="currency" format="2">
  <advance width="578"/>
  <unicode hex="00A4"/>
  <guideline x="-150" y="300" angle="0"/>
  <guideline x="-150" y="510" angle="0"/>
  <guideline x="-150" y="450" angle="0"/>
  <guideline x="138"/>
  <outline>
    <contour>
      <point x="60" y="89" type="line"/>
      <point x="67" y="80"/>
      <point x="80" y="80"/>
      <point x="91" y="89" type="curve"/>
      <point x="142" y="132" type="line"/>
      <point x="172" y="105"/>
      <point x="211" y="90"/>
      <point x="259" y="90" type="curve" smooth="yes"/>
      <point x="306" y="90"/>
      <point x="354" y="105"/>
      <point x="394" y="132" type="curve"/>
      <point x="427" y="89" type="line"/>
      <point x="434" y="80"/>
      <point x="447" y="80"/>
      <point x="458" y="89" type="curve"/>
      <point x="473" y="101" type="line"/>
      <point x="484" y="110"/>
      <point x="486" y="123"/>
      <point x="479" y="132" type="curve"/>
      <point x="445" y="174" type="line"/>
      <point x="479" y="209"/>
      <point x="504" y="252"/>
      <point x="514" y="300" type="curve" smooth="yes"/>
      <point x="524" y="347"/>
      <point x="517" y="391"/>
      <point x="499" y="426" type="curve"/>
      <point x="551" y="468" type="line"/>
      <point x="562" y="477"/>
      <point x="564" y="490"/>
      <point x="557" y="499" type="curve"/>
      <point x="548" y="511" type="line"/>
      <point x="541" y="520"/>
      <point x="528" y="520"/>
      <point x="517" y="511" type="curve"/>
      <point x="466" y="468" type="line"/>
      <point x="436" y="494"/>
      <point x="396" y="510"/>
      <point x="349" y="510" type="curve" smooth="yes"/>
      <point x="301" y="510"/>
      <point x="254" y="494"/>
      <point x="214" y="468" type="curve"/>
      <point x="181" y="511" type="line"/>
      <point x="174" y="520"/>
      <point x="161" y="520"/>
      <point x="150" y="511" type="curve"/>
      <point x="135" y="499" type="line"/>
      <point x="124" y="490"/>
      <point x="122" y="477"/>
      <point x="129" y="468" type="curve"/>
      <point x="163" y="426" type="line"/>
      <point x="128" y="391"/>
      <point x="104" y="347"/>
      <point x="94" y="300" type="curve" smooth="yes"/>
      <point x="84" y="252"/>
      <point x="90" y="209"/>
      <point x="109" y="174" type="curve"/>
      <point x="57" y="132" type="line"/>
      <point x="46" y="123"/>
      <point x="44" y="110"/>
      <point x="51" y="101" type="curve"/>
    </contour>
    <contour>
      <point x="272" y="150" type="curve" smooth="yes"/>
      <point x="189" y="150"/>
      <point x="136" y="217"/>
      <point x="154" y="300" type="curve" smooth="yes"/>
      <point x="172" y="383"/>
      <point x="253" y="450"/>
      <point x="336" y="450" type="curve" smooth="yes"/>
      <point x="419" y="450"/>
      <point x="472" y="383"/>
      <point x="454" y="300" type="curve" smooth="yes"/>
      <point x="436" y="217"/>
      <point x="355" y="150"/>
    </contour>
  </outline>
</glyph>
<glyph name="guillemetright" format="2">
  <advance width="603"/>
  <unicode hex="00BB"/>
  <guideline x="-150" y="329" angle="0"/>
  <guideline x="499"/>
  <outline>
    <contour>
      <point x="298" y="92" type="curve" smooth="yes"/>
      <point x="306" y="92"/>
      <point x="315" y="97"/>
      <point x="324" y="104" type="curve" smooth="yes"/>
      <point x="551" y="286" type="line" smooth="yes"/>
      <point x="567" y="299"/>
      <point x="572" y="310"/>
      <point x="575" y="321" type="curve"/>
      <point x="579" y="337" type="line"/>
      <point x="580" y="348"/>
      <point x="580" y="359"/>
      <point x="569" y="372" type="curve" smooth="yes"/>
      <point x="420" y="554" type="line" smooth="yes"/>
      <point x="413" y="561"/>
      <point x="407" y="566"/>
      <point x="399" y="566" type="curve" smooth="yes"/>
      <point x="387" y="566"/>
      <point x="377" y="558"/>
      <point x="374" y="546" type="curve" smooth="yes"/>
      <point x="371" y="529" type="line" smooth="yes"/>
      <point x="367" y="513"/>
      <point x="371" y="506"/>
      <point x="381" y="493" type="curve" smooth="yes"/>
      <point x="515" y="329" type="line"/>
      <point x="311" y="165" type="line" smooth="yes"/>
      <point x="296" y="152"/>
      <point x="289" y="145"/>
      <point x="286" y="129" type="curve" smooth="yes"/>
      <point x="282" y="112" type="line" smooth="yes"/>
      <point x="279" y="100"/>
      <point x="286" y="92"/>
    </contour>
    <contour>
      <point x="49" y="92" type="curve" smooth="yes"/>
      <point x="57" y="92"/>
      <point x="66" y="97"/>
      <point x="75" y="104" type="curve" smooth="yes"/>
      <point x="302" y="286" type="line" smooth="yes"/>
      <point x="318" y="299"/>
      <point x="323" y="310"/>
      <point x="326" y="321" type="curve"/>
      <point x="330" y="337" type="line"/>
      <point x="331" y="348"/>
      <point x="331" y="359"/>
      <point x="320" y="372" type="curve" smooth="yes"/>
      <point x="171" y="554" type="line" smooth="yes"/>
      <point x="164" y="561"/>
      <point x="158" y="566"/>
      <point x="150" y="566" type="curve" smooth="yes"/>
      <point x="138" y="566"/>
      <point x="128" y="558"/>
      <point x="125" y="546" type="curve" smooth="yes"/>
      <point x="122" y="529" type="line" smooth="yes"/>
      <point x="118" y="513"/>
      <point x="122" y="506"/>
      <point x="132" y="493" type="curve" smooth="yes"/>
      <point x="266" y="329" type="line"/>
      <point x="62" y="165" type="line" smooth="yes"/>
      <point x="47" y="152"/>
      <point x="40" y="145"/>
      <point x="37" y="129" type="curve" smooth="yes"/>
      <point x="33" y="112" type="line" smooth="yes"/>
      <point x="30" y="100"/>
      <point x="37" y="92"/>
    </contour>
  </outline>
</glyph>
<glyph name="Ccedilla" format="2">
  <advance width="651"/>
  <unicode hex="00C7"/>
  <guideline x="-150" y="-174" angle="0"/>
  <guideline x="-150" y="-220" angle="0"/>
  <guideline x="-150" y="-96" angle="0"/>
  <guideline x="-150" y="-50" angle="0"/>
  <guideline x="-150" y="-135" angle="0"/>
  <guideline x="181"/>
  <guideline x="192"/>
  <outline>
    <contour>
      <point x="232" y="-220" type="curve" smooth="yes"/>
      <point x="295" y="-221"/>
      <point x="335" y="-180"/>
      <point x="345" y="-132" type="curve" smooth="yes"/>
      <point x="355" y="-84"/>
      <point x="331" y="-50"/>
      <point x="287" y="-50" type="curve" smooth="yes"/>
      <point x="272" y="-50"/>
      <point x="256" y="-53"/>
      <point x="247" y="-58" type="curve"/>
      <point x="280" y="-10" type="line"/>
      <point x="470" y="-10"/>
      <point x="568" y="111"/>
      <point x="593" y="206" type="curve" smooth="yes"/>
      <point x="597" y="218"/>
      <point x="588" y="226"/>
      <point x="576" y="226" type="curve"/>
      <point x="556" y="226" type="line"/>
      <point x="545" y="226"/>
      <point x="536" y="221"/>
      <point x="530" y="205" type="curve" smooth="yes"/>
      <point x="478" y="86"/>
      <point x="400" y="50"/>
      <point x="293" y="50" type="curve" smooth="yes"/>
      <point x="171" y="50"/>
      <point x="110" y="115"/>
      <point x="137" y="266" type="curve" smooth="yes"/>
      <point x="147" y="323"/>
      <point x="159" y="379"/>
      <point x="172" y="434" type="curve" smooth="yes"/>
      <point x="210" y="585"/>
      <point x="298" y="650"/>
      <point x="420" y="650" type="curve" smooth="yes"/>
      <point x="527" y="650"/>
      <point x="591" y="614"/>
      <point x="591" y="495" type="curve" smooth="yes"/>
      <point x="591" y="479"/>
      <point x="598" y="474"/>
      <point x="609" y="474" type="curve"/>
      <point x="629" y="474" type="line"/>
      <point x="641" y="474"/>
      <point x="653" y="482"/>
      <point x="654" y="494" type="curve" smooth="yes"/>
      <point x="669" y="589"/>
      <point x="623" y="710"/>
      <point x="433" y="710" type="curve" smooth="yes"/>
      <point x="251" y="710"/>
      <point x="150" y="595"/>
      <point x="111" y="439" type="curve" smooth="yes"/>
      <point x="96" y="382"/>
      <point x="82" y="315"/>
      <point x="73" y="261" type="curve" smooth="yes"/>
      <point x="48" y="121"/>
      <point x="87" y="15"/>
      <point x="227" y="-6" type="curve"/>
      <point x="197" y="-53" type="line"/>
      <point x="191" y="-63"/>
      <point x="180" y="-75"/>
      <point x="186" y="-83" type="curve"/>
      <point x="198" y="-100" type="line"/>
      <point x="210" y="-116"/>
      <point x="227" y="-96"/>
      <point x="259" y="-96" type="curve" smooth="yes"/>
      <point x="282" y="-96"/>
      <point x="299" y="-110"/>
      <point x="294" y="-134" type="curve" smooth="yes"/>
      <point x="288" y="-159"/>
      <point x="265" y="-174"/>
      <point x="242" y="-174" type="curve" smooth="yes"/>
      <point x="198" y="-174"/>
      <point x="198" y="-140"/>
      <point x="178" y="-156" type="curve"/>
      <point x="161" y="-169" type="line"/>
      <point x="142" y="-184"/>
      <point x="176" y="-219"/>
    </contour>
  </outline>
</glyph>
<glyph name="oslash" format="2">
  <advance width="594"/>
  <unicode hex="00F8"/>
  <guideline x="-150" y="259" angle="0"/>
  <guideline x="220"/>
  <guideline x="-70"/>
  <guideline x="434"/>
  <guideline x="-9"/>
  <guideline x="-130"/>
  <outline>
    <contour>
      <point x="246" y="-10" type="curve" smooth="yes"/>
      <point x="410" y="-10"/>
      <point x="490" y="109"/>
      <point x="517" y="218" type="curve" smooth="yes"/>
      <point x="523" y="242"/>
      <point x="533" y="289"/>
      <point x="536" y="312" type="curve"/>
      <point x="578" y="327" type="line" smooth="yes"/>
      <point x="595" y="333"/>
      <point x="602" y="337"/>
      <point x="605" y="352" type="curve" smooth="yes"/>
      <point x="609" y="371" type="line" smooth="yes"/>
      <point x="612" y="383"/>
      <point x="605" y="389"/>
      <point x="594" y="389" type="curve" smooth="yes"/>
      <point x="590" y="389"/>
      <point x="586" y="388"/>
      <point x="580" y="386" type="curve" smooth="yes"/>
      <point x="539" y="371" type="line"/>
      <point x="535" y="456"/>
      <point x="490" y="530"/>
      <point x="361" y="530" type="curve" smooth="yes"/>
      <point x="197" y="530"/>
      <point x="117" y="411"/>
      <point x="90" y="302" type="curve" smooth="yes"/>
      <point x="82" y="270"/>
      <point x="75" y="238"/>
      <point x="70" y="203" type="curve"/>
      <point x="28" y="188" type="line" smooth="yes"/>
      <point x="11" y="182"/>
      <point x="4" y="178"/>
      <point x="1" y="163" type="curve" smooth="yes"/>
      <point x="-3" y="144" type="line" smooth="yes"/>
      <point x="-6" y="132"/>
      <point x="1" y="126"/>
      <point x="12" y="126" type="curve" smooth="yes"/>
      <point x="16" y="126"/>
      <point x="20" y="127"/>
      <point x="26" y="129" type="curve" smooth="yes"/>
      <point x="67" y="144" type="line"/>
      <point x="72" y="61"/>
      <point x="119" y="-10"/>
    </contour>
    <contour>
      <point x="258" y="48" type="curve" smooth="yes"/>
      <point x="188" y="48"/>
      <point x="131" y="81"/>
      <point x="128" y="166" type="curve"/>
      <point x="471" y="289" type="line"/>
      <point x="467" y="267"/>
      <point x="460" y="234"/>
      <point x="456" y="218" type="curve" smooth="yes"/>
      <point x="425" y="94"/>
      <point x="341" y="48"/>
    </contour>
    <contour>
      <point x="135" y="226" type="line"/>
      <point x="139" y="248"/>
      <point x="147" y="284"/>
      <point x="151" y="302" type="curve" smooth="yes"/>
      <point x="182" y="426"/>
      <point x="266" y="472"/>
      <point x="349" y="472" type="curve" smooth="yes"/>
      <point x="420" y="472"/>
      <point x="477" y="438"/>
      <point x="477" y="349" type="curve"/>
    </contour>
  </outline>
</glyph>
<glyph name="eogonek" format="2">
  <advance width="547"/>
  <unicode hex="0119"/>
  <guideline x="-150" y="259" angle="0"/>
  <guideline x="-150" y="-220" angle="0"/>
  <guideline x="189"/>
  <outline>
    <contour>
      <point x="230" y="-220" type="curve"/>
      <point x="249" y="-220" type="line"/>
      <point x="262" y="-220"/>
      <point x="273" y="-211"/>
      <point x="276" y="-198" type="curve"/>
      <point x="279" y="-185" type="line"/>
      <point x="282" y="-172"/>
      <point x="275" y="-163"/>
      <point x="262" y="-163" type="curve"/>
      <point x="247" y="-163" type="line"/>
      <point x="203" y="-163"/>
      <point x="177" y="-133"/>
      <point x="188" y="-82" type="curve" smooth="yes"/>
      <point x="198" y="-35"/>
      <point x="228" y="-14"/>
      <point x="270" y="-6" type="curve" smooth="yes"/>
      <point x="372" y="14"/>
      <point x="447" y="77"/>
      <point x="456" y="111" type="curve" smooth="yes"/>
      <point x="459" y="123"/>
      <point x="451" y="131"/>
      <point x="439" y="131" type="curve" smooth="yes"/>
      <point x="423" y="131" type="line" smooth="yes"/>
      <point x="408" y="131"/>
      <point x="405" y="130"/>
      <point x="389" y="113" type="curve" smooth="yes"/>
      <point x="375" y="97"/>
      <point x="321" y="48"/>
      <point x="236" y="48" type="curve" smooth="yes"/>
      <point x="139" y="48"/>
      <point x="101" y="134"/>
      <point x="116" y="225" type="curve" smooth="yes"/>
      <point x="118" y="235" type="line"/>
      <point x="474" y="235" type="line" smooth="yes"/>
      <point x="487" y="235"/>
      <point x="499" y="244"/>
      <point x="502" y="257" type="curve" smooth="yes"/>
      <point x="505" y="272" type="line" smooth="yes"/>
      <point x="539" y="432"/>
      <point x="478" y="530"/>
      <point x="339" y="530" type="curve" smooth="yes"/>
      <point x="209" y="530"/>
      <point x="110" y="436"/>
      <point x="71" y="300" type="curve" smooth="yes"/>
      <point x="66" y="280"/>
      <point x="57" y="240"/>
      <point x="54" y="220" type="curve" smooth="yes"/>
      <point x="38" y="106"/>
      <point x="76" y="23"/>
      <point x="164" y="-2" type="curve"/>
      <point x="146" y="-23"/>
      <point x="134" y="-51"/>
      <point x="128" y="-82" type="curve" smooth="yes"/>
      <point x="110" y="-167"/>
      <point x="149" y="-220"/>
    </contour>
    <contour>
      <point x="129" y="291" type="line"/>
      <point x="130" y="295" type="line" smooth="yes"/>
      <point x="151" y="395"/>
      <point x="226" y="472"/>
      <point x="326" y="472" type="curve" smooth="yes"/>
      <point x="426" y="472"/>
      <point x="469" y="395"/>
      <point x="448" y="295" type="curve" smooth="yes"/>
      <point x="447" y="291" type="line"/>
    </contour>
  </outline>
</glyph>
<glyph name="Iogonek" format="2">
  <advance width="269"/>
  <unicode hex="012E"/>
  <guideline x="-40"/>
  <outline>
    <contour>
      <point x="38" y="-220" type="curve" smooth="yes"/>
      <point x="57" y="-220" type="line" smooth="yes"/>
      <point x="70" y="-220"/>
      <point x="81" y="-211"/>
      <point x="84" y="-198" type="curve" smooth="yes"/>
      <point x="87" y="-185" type="line" smooth="yes"/>
      <point x="90" y="-172"/>
      <point x="83" y="-163"/>
      <point x="70" y="-163" type="curve" smooth="yes"/>
      <point x="55" y="-163" type="line" smooth="yes"/>
      <point x="11" y="-163"/>
      <point x="-15" y="-133"/>
      <point x="-4" y="-82" type="curve" smooth="yes"/>
      <point x="7" y="-31"/>
      <point x="45" y="0"/>
      <point x="89" y="0" type="curve" smooth="yes"/>
      <point x="104" y="0" type="line" smooth="yes"/>
      <point x="117" y="0"/>
      <point x="128" y="9"/>
      <point x="131" y="22" type="curve" smooth="yes"/>
      <point x="270" y="678" type="line" smooth="yes"/>
      <point x="273" y="691"/>
      <point x="266" y="700"/>
      <point x="253" y="700" type="curve" smooth="yes"/>
      <point x="234" y="700" type="line" smooth="yes"/>
      <point x="221" y="700"/>
      <point x="210" y="691"/>
      <point x="207" y="678" type="curve" smooth="yes"/>
      <point x="79" y="74" type="line"/>
      <point x="78" y="71"/>
      <point x="77" y="67"/>
      <point x="77" y="64" type="curve"/>
      <point x="75" y="55" type="line"/>
      <point x="5" y="46"/>
      <point x="-48" y="-5"/>
      <point x="-64" y="-82" type="curve" smooth="yes"/>
      <point x="-82" y="-167"/>
      <point x="-43" y="-220"/>
    </contour>
  </outline>
</glyph>
<glyph name="lslash" format="2">
  <advance width="247"/>
  <unicode hex="0142"/>
  <guideline x="-150" y="355" angle="0"/>
  <guideline x="81"/>
  <guideline x="-50"/>
  <guideline x="-120"/>
  <outline>
    <contour>
      <point x="67" y="0" type="curve" smooth="yes"/>
      <point x="84" y="0" type="line" smooth="yes"/>
      <point x="97" y="0"/>
      <point x="108" y="9"/>
      <point x="111" y="22" type="curve" smooth="yes"/>
      <point x="179" y="341" type="line"/>
      <point x="231" y="360" type="line" smooth="yes"/>
      <point x="248" y="366"/>
      <point x="255" y="370"/>
      <point x="258" y="385" type="curve" smooth="yes"/>
      <point x="262" y="404" type="line" smooth="yes"/>
      <point x="265" y="416"/>
      <point x="258" y="422"/>
      <point x="247" y="422" type="curve" smooth="yes"/>
      <point x="243" y="422"/>
      <point x="239" y="421"/>
      <point x="233" y="419" type="curve" smooth="yes"/>
      <point x="192" y="404" type="line"/>
      <point x="252" y="688" type="line" smooth="yes"/>
      <point x="255" y="701"/>
      <point x="248" y="710"/>
      <point x="235" y="710" type="curve" smooth="yes"/>
      <point x="218" y="710" type="line" smooth="yes"/>
      <point x="205" y="710"/>
      <point x="194" y="701"/>
      <point x="191" y="688" type="curve" smooth="yes"/>
      <point x="126" y="381" type="line"/>
      <point x="74" y="363" type="line" smooth="yes"/>
      <point x="57" y="357"/>
      <point x="50" y="353"/>
      <point x="47" y="338" type="curve" smooth="yes"/>
      <point x="43" y="319" type="line" smooth="yes"/>
      <point x="40" y="307"/>
      <point x="47" y="301"/>
      <point x="58" y="301" type="curve" smooth="yes"/>
      <point x="62" y="301"/>
      <point x="66" y="302"/>
      <point x="72" y="304" type="curve" smooth="yes"/>
      <point x="113" y="318" type="line"/>
      <point x="50" y="22" type="line" smooth="yes"/>
      <point x="47" y="9"/>
      <point x="54" y="0"/>
    </contour>
  </outline>
</glyph>
<glyph name="Nje-cy" format="2">
  <advance width="990"/>
  <unicode hex="040A"/>
  <outline>
    <contour>
      <point x="53" y="0" type="curve" smooth="yes"/>
      <point x="71" y="0" type="line" smooth="yes"/>
      <point x="85" y="0"/>
      <point x="96" y="9"/>
      <point x="98" y="22" type="curve" smooth="yes"/>
      <point x="163" y="325" type="line"/>
      <point x="529" y="325" type="line"/>
      <point x="464" y="22" type="line" smooth="yes"/>
      <point x="462" y="9"/>
      <point x="469" y="0"/>
      <point x="482" y="0" type="curve" smooth="yes"/>
      <point x="666" y="0" type="line" smooth="yes"/>
      <point x="812" y="0"/>
      <point x="900" y="111"/>
      <point x="921" y="214" type="curve" smooth="yes"/>
      <point x="945" y="331"/>
      <point x="898" y="418"/>
      <point x="754" y="418" type="curve" smooth="yes"/>
      <point x="611" y="418" type="line"/>
      <point x="667" y="678" type="line" smooth="yes"/>
      <point x="670" y="691"/>
      <point x="662" y="700"/>
      <point x="649" y="700" type="curve"/>
      <point x="630" y="700" type="line" smooth="yes"/>
      <point x="617" y="700"/>
      <point x="606" y="691"/>
      <point x="604" y="677" type="curve" smooth="yes"/>
      <point x="541" y="385" type="line"/>
      <point x="175" y="385" type="line"/>
      <point x="238" y="677" type="line" smooth="yes"/>
      <point x="240" y="691"/>
      <point x="233" y="700"/>
      <point x="219" y="700" type="curve" smooth="yes"/>
      <point x="201" y="700" type="line" smooth="yes"/>
      <point x="188" y="700"/>
      <point x="177" y="691"/>
      <point x="175" y="677" type="curve" smooth="yes"/>
      <point x="35" y="22" type="line" smooth="yes"/>
      <point x="33" y="9"/>
      <point x="40" y="0"/>
    </contour>
    <contour>
      <point x="535" y="60" type="line"/>
      <point x="600" y="363" type="line"/>
      <point x="733" y="363" type="line" smooth="yes"/>
      <point x="840" y="363"/>
      <point x="879" y="314"/>
      <point x="859" y="217" type="curve" smooth="yes"/>
      <point x="839" y="122"/>
      <point x="767" y="60"/>
      <point x="668" y="60" type="curve" smooth="yes"/>
    </contour>
  </outline>
</glyph>
<glyph name="Ge-cy" format="2">
  <advance width="505"/>
  <unicode hex="0413"/>
  <guideline x="442"/>
  <anchor x="20" y="0" name="bottomright"/>
  <anchor x="150" y="350" name="center"/>
  <anchor x="357" y="700" name="top"/>
  <outline>
    <contour>
      <point x="42" y="0" type="curve" smooth="yes"/>
      <point x="60" y="0" type="line" smooth="yes"/>
      <point x="74" y="0"/>
      <point x="85" y="9"/>
      <point x="87" y="22" type="curve" smooth="yes"/>
      <point x="219" y="640" type="line"/>
      <point x="544" y="640" type="line" smooth="yes"/>
      <point x="558" y="640"/>
      <point x="569" y="649"/>
      <point x="571" y="662" type="curve" smooth="yes"/>
      <point x="575" y="677" type="line" smooth="yes"/>
      <point x="577" y="691"/>
      <point x="570" y="700"/>
      <point x="556" y="700" type="curve" smooth="yes"/>
      <point x="190" y="700" type="line" smooth="yes"/>
      <point x="177" y="700"/>
      <point x="166" y="691"/>
      <point x="164" y="677" type="curve" smooth="yes"/>
      <point x="24" y="22" type="line" smooth="yes"/>
      <point x="22" y="9"/>
      <point x="29" y="0"/>
    </contour>
  </outline>
</glyph>
<glyph name="Pe-cy" format="2">
  <advance width="700"/>
  <unicode hex="041F"/>
  <guideline x="11"/>
  <anchor x="469" y="0" name="bottomright"/>
  <outline>
    <contour>
      <point x="42" y="0" type="curve"/>
      <point x="60" y="0" type="line" smooth="yes"/>
      <point x="74" y="0"/>
      <point x="85" y="9"/>
      <point x="87" y="22" type="curve" smooth="yes"/>
      <point x="219" y="640" type="line"/>
      <point x="605" y="640" type="line"/>
      <point x="473" y="22" type="line" smooth="yes"/>
      <point x="471" y="9"/>
      <point x="478" y="0"/>
      <point x="491" y="0" type="curve" smooth="yes"/>
      <point x="509" y="0" type="line" smooth="yes"/>
      <point x="523" y="0"/>
      <point x="534" y="9"/>
      <point x="536" y="22" type="curve" smooth="yes"/>
      <point x="676" y="677" type="line" smooth="yes"/>
      <point x="678" y="691"/>
      <point x="671" y="700"/>
      <point x="657" y="700" type="curve" smooth="yes"/>
      <point x="190" y="700" type="line" smooth="yes"/>
      <point x="177" y="700"/>
      <point x="166" y="691"/>
      <point x="164" y="677" type="curve" smooth="yes"/>
      <point x="24" y="22" type="line" smooth="yes"/>
      <point x="22" y="9"/>
      <point x="29" y="0"/>
    </contour>
  </outline>
</glyph>
<glyph name="U-cy" format="2">
  <advance width="563"/>
  <unicode hex="0423"/>
  <guideline x="4620"/>
  <guideline x="6549"/>
  <guideline x="6843"/>
  <anchor x="361" y="700" name="top"/>
  <outline>
    <contour>
      <point x="39" y="0" type="curve" smooth="yes"/>
      <point x="73" y="0" type="line" smooth="yes"/>
      <point x="182" y="0"/>
      <point x="233" y="67"/>
      <point x="323" y="204" type="curve" smooth="yes"/>
      <point x="628" y="668" type="line" smooth="yes"/>
      <point x="630" y="672"/>
      <point x="632" y="675"/>
      <point x="633" y="680" type="curve" smooth="yes"/>
      <point x="635" y="691"/>
      <point x="628" y="700"/>
      <point x="617" y="700" type="curve" smooth="yes"/>
      <point x="595" y="700" type="line" smooth="yes"/>
      <point x="586" y="700"/>
      <point x="575" y="695"/>
      <point x="569" y="685" type="curve" smooth="yes"/>
      <point x="275" y="232" type="line" smooth="yes"/>
      <point x="197" y="111"/>
      <point x="152" y="60"/>
      <point x="85" y="60" type="curve" smooth="yes"/>
      <point x="51" y="60" type="line" smooth="yes"/>
      <point x="38" y="60"/>
      <point x="27" y="51"/>
      <point x="24" y="37" type="curve" smooth="yes"/>
      <point x="21" y="22" type="line" smooth="yes"/>
      <point x="19" y="9"/>
      <point x="26" y="0"/>
    </contour>
    <contour>
      <point x="257" y="166" type="line"/>
      <point x="297" y="233" type="line"/>
      <point x="140" y="685" type="line" smooth="yes"/>
      <point x="136" y="695"/>
      <point x="129" y="700"/>
      <point x="120" y="700" type="curve" smooth="yes"/>
      <point x="109" y="700" type="line" smooth="yes"/>
      <point x="98" y="700"/>
      <point x="87" y="691"/>
      <point x="85" y="680" type="curve" smooth="yes"/>
      <point x="84" y="675"/>
      <point x="84" y="672"/>
      <point x="86" y="668" type="curve" smooth="yes"/>
    </contour>
  </outline>
</glyph>
<glyph name="Sha-cy" format="2">
  <advance width="945"/>
  <unicode hex="0428"/>
  <guideline x="399"/>
  <outline>
    <contour>
      <point x="53" y="0" type="curve" smooth="yes"/>
      <point x="765" y="0" type="line" smooth="yes"/>
      <point x="779" y="0"/>
      <point x="790" y="9"/>
      <point x="792" y="22" type="curve" smooth="yes"/>
      <point x="932" y="678" type="line" smooth="yes"/>
      <point x="934" y="691"/>
      <point x="927" y="700"/>
      <point x="913" y="700" type="curve" smooth="yes"/>
      <point x="895" y="700" type="line" smooth="yes"/>
      <point x="882" y="700"/>
      <point x="871" y="691"/>
      <point x="869" y="678" type="curve" smooth="yes"/>
      <point x="737" y="60" type="line"/>
      <point x="453" y="60" type="line"/>
      <point x="585" y="678" type="line" smooth="yes"/>
      <point x="587" y="691"/>
      <point x="580" y="700"/>
      <point x="566" y="700" type="curve" smooth="yes"/>
      <point x="548" y="700" type="line"/>
      <point x="535" y="700"/>
      <point x="524" y="691"/>
      <point x="522" y="678" type="curve" smooth="yes"/>
      <point x="390" y="60" type="line"/>
      <point x="106" y="60" type="line"/>
      <point x="238" y="678" type="line" smooth="yes"/>
      <point x="240" y="691"/>
      <point x="233" y="700"/>
      <point x="219" y="700" type="curve" smooth="yes"/>
      <point x="201" y="700" type="line" smooth="yes"/>
      <point x="188" y="700"/>
      <point x="177" y="691"/>
      <point x="175" y="678" type="curve" smooth="yes"/>
      <point x="35" y="22" type="line" smooth="yes"/>
      <point x="33" y="9"/>
      <point x="40" y="0"/>
    </contour>
  </outline>
</glyph>
<glyph name="Ia-cy" format="2">
  <advance width="631"/>
  <unicode hex="042F"/>
  <outline>
    <contour>
      <point x="434" y="0" type="curve" smooth="yes"/>
      <point x="452" y="0" type="line"/>
      <point x="465" y="0"/>
      <point x="476" y="9"/>
      <point x="478" y="22" type="curve" smooth="yes"/>
      <point x="618" y="678" type="line" smooth="yes"/>
      <point x="620" y="691"/>
      <point x="613" y="700"/>
      <point x="600" y="700" type="curve" smooth="yes"/>
      <point x="396" y="700" type="line" smooth="yes"/>
      <point x="240" y="700"/>
      <point x="155" y="599"/>
      <point x="131" y="486" type="curve" smooth="yes"/>
      <point x="106" y="369"/>
      <point x="172" y="277"/>
      <point x="326" y="277" type="curve" smooth="yes"/>
      <point x="469" y="277" type="line"/>
      <point x="415" y="22" type="line" smooth="yes"/>
      <point x="413" y="9"/>
      <point x="420" y="0"/>
    </contour>
    <contour>
      <point x="36" y="0" type="curve" smooth="yes"/>
      <point x="55" y="0" type="line" smooth="yes"/>
      <point x="77" y="0"/>
      <point x="86" y="13"/>
      <point x="98" y="27" type="curve" smooth="yes"/>
      <point x="345" y="310" type="line"/>
      <point x="275" y="319" type="line"/>
      <point x="25" y="31" type="line" smooth="yes"/>
      <point x="22" y="27"/>
      <point x="21" y="24"/>
      <point x="20" y="20" type="curve" smooth="yes"/>
      <point x="18" y="9"/>
      <point x="25" y="0"/>
    </contour>
    <contour>
      <point x="329" y="337" type="line" smooth="yes"/>
      <point x="222" y="337"/>
      <point x="173" y="386"/>
      <point x="193" y="483" type="curve" smooth="yes"/>
      <point x="213" y="578"/>
      <point x="285" y="640"/>
      <point x="384" y="640" type="curve" smooth="yes"/>
      <point x="547" y="640" type="line"/>
      <point x="482" y="337" type="line"/>
    </contour>
  </outline>
</glyph>
<glyph name="hardsign-cy" format="2">
  <advance width="539"/>
  <unicode hex="044A"/>
  <outline>
    <contour>
      <point x="131" y="0" type="curve" smooth="yes"/>
      <point x="255" y="0" type="line" smooth="yes"/>
      <point x="395" y="0"/>
      <point x="470" y="51"/>
      <point x="495" y="169" type="curve" smooth="yes"/>
      <point x="516" y="267"/>
      <point x="469" y="342"/>
      <point x="343" y="341" type="curve" smooth="yes"/>
      <point x="244" y="341" type="line"/>
      <point x="276" y="498" type="line" smooth="yes"/>
      <point x="279" y="511"/>
      <point x="271" y="520"/>
      <point x="258" y="520" type="curve" smooth="yes"/>
      <point x="90" y="520" type="line" smooth="yes"/>
      <point x="77" y="520"/>
      <point x="66" y="511"/>
      <point x="64" y="498" type="curve" smooth="yes"/>
      <point x="61" y="484" type="line" smooth="yes"/>
      <point x="58" y="471"/>
      <point x="65" y="462"/>
      <point x="78" y="462" type="curve" smooth="yes"/>
      <point x="207" y="462" type="line"/>
      <point x="113" y="22" type="line" smooth="yes"/>
      <point x="111" y="9"/>
      <point x="118" y="0"/>
    </contour>
    <contour>
      <point x="182" y="58" type="line"/>
      <point x="231" y="288" type="line"/>
      <point x="325" y="288" type="line" smooth="yes"/>
      <point x="421" y="288"/>
      <point x="451" y="249"/>
      <point x="434" y="169" type="curve" smooth="yes"/>
      <point x="416" y="86"/>
      <point x="369" y="58"/>
      <point x="276" y="58" type="curve" smooth="yes"/>
    </contour>
  </outline>
</glyph>
<glyph name="Ghestroke-cy" format="2">
  <advance width="505"/>
  <unicode hex="0492"/>
  <outline>
    <contour>
      <point x="31" y="321" type="curve" smooth="yes"/>
      <point x="306" y="321" type="line" smooth="yes"/>
      <point x="319" y="321"/>
      <point x="330" y="330"/>
      <point x="333" y="343" type="curve" smooth="yes"/>
      <point x="335" y="357" type="line" smooth="yes"/>
      <point x="338" y="370"/>
      <point x="331" y="379"/>
      <point x="318" y="379" type="curve" smooth="yes"/>
      <point x="43" y="379" type="line" smooth="yes"/>
      <point x="30" y="379"/>
      <point x="19" y="370"/>
      <point x="16" y="357" type="curve" smooth="yes"/>
      <point x="14" y="343" type="line" smooth="yes"/>
      <point x="11" y="330"/>
      <point x="18" y="321"/>
    </contour>
    <component base="Ge-cy"/>
  </outline>
</glyph>
<glyph name="Zedescender-cy" format="2">
  <advance width="584"/>
  <unicode hex="0498"/>
  <outline>
    <contour>
      <point x="193" y="-140" type="curve" smooth="yes"/>
      <point x="211" y="-140" type="line" smooth="yes"/>
      <point x="225" y="-140"/>
      <point x="236" y="-131"/>
      <point x="238" y="-118" type="curve" smooth="yes"/>
      <point x="271" y="38" type="line"/>
      <point x="200" y="0" type="line"/>
      <point x="175" y="-118" type="line" smooth="yes"/>
      <point x="173" y="-131"/>
      <point x="180" y="-140"/>
    </contour>
    <component base="Ze-cy"/>
  </outline>
</glyph>
<glyph name="Schwa-cy" format="2">
  <advance width="655"/>
  <unicode hex="04D8"/>
  <outline>
    <contour>
      <point x="617" y="439" type="curve" smooth="yes"/>
      <point x="645" y="595"/>
      <point x="592" y="710"/>
      <point x="410" y="710" type="curve" smooth="yes"/>
      <point x="232" y="710"/>
      <point x="144" y="603"/>
      <point x="119" y="519" type="curve" smooth="yes"/>
      <point x="115" y="507"/>
      <point x="124" y="499"/>
      <point x="136" y="499" type="curve" smooth="yes"/>
      <point x="156" y="499" type="line" smooth="yes"/>
      <point x="167" y="499"/>
      <point x="176" y="504"/>
      <point x="182" y="520" type="curve" smooth="yes"/>
      <point x="225" y="621"/>
      <point x="299" y="650"/>
      <point x="397" y="650" type="curve" smooth="yes"/>
      <point x="519" y="650"/>
      <point x="580" y="585"/>
      <point x="553" y="434" type="curve" smooth="yes"/>
      <point x="550" y="416"/>
      <point x="546" y="397"/>
      <point x="542" y="379" type="curve"/>
      <point x="113" y="379" type="line" smooth="yes"/>
      <point x="95" y="379"/>
      <point x="80" y="367"/>
      <point x="76" y="350" type="curve" smooth="yes"/>
      <point x="72" y="329" type="line" smooth="yes"/>
      <point x="20" y="87"/>
      <point x="108" y="-10"/>
      <point x="263" y="-10" type="curve" smooth="yes"/>
      <point x="438" y="-10"/>
      <point x="540" y="105"/>
      <point x="579" y="261" type="curve" smooth="yes"/>
      <point x="593" y="315"/>
      <point x="607" y="382"/>
    </contour>
    <contour>
      <point x="276" y="50" type="curve" smooth="yes"/>
      <point x="143" y="50"/>
      <point x="93" y="134"/>
      <point x="132" y="315" type="curve" smooth="yes"/>
      <point x="133" y="321" type="line"/>
      <point x="530" y="321" type="line"/>
      <point x="526" y="303"/>
      <point x="522" y="284"/>
      <point x="517" y="266" type="curve" smooth="yes"/>
      <point x="480" y="115"/>
      <point x="391" y="50"/>
    </contour>
  </outline>
</glyph>
<glyph name="obarred-cy" format="2">
  <advance width="558"/>
  <unicode hex="04E9"/>
  <outline>
    <contour>
      <point x="80" y="231" type="curve" smooth="yes"/>
      <point x="465" y="231" type="line" smooth="yes"/>
      <point x="478" y="231"/>
      <point x="489" y="240"/>
      <point x="492" y="253" type="curve" smooth="yes"/>
      <point x="494" y="267" type="line" smooth="yes"/>
      <point x="497" y="280"/>
      <point x="490" y="289"/>
      <point x="477" y="289" type="curve" smooth="yes"/>
      <point x="92" y="289" type="line" smooth="yes"/>
      <point x="79" y="289"/>
      <point x="68" y="280"/>
      <point x="65" y="267" type="curve" smooth="yes"/>
      <point x="63" y="253" type="line" smooth="yes"/>
      <point x="60" y="240"/>
      <point x="67" y="231"/>
    </contour>
    <contour>
      <point x="222" y="-10" type="curve" smooth="yes"/>
      <point x="366" y="-10"/>
      <point x="461" y="89"/>
      <point x="492" y="218" type="curve" smooth="yes"/>
      <point x="497" y="238"/>
      <point x="507" y="282"/>
      <point x="510" y="302" type="curve" smooth="yes"/>
      <point x="533" y="431"/>
      <point x="480" y="530"/>
      <point x="336" y="530" type="curve" smooth="yes"/>
      <point x="192" y="530"/>
      <point x="97" y="431"/>
      <point x="66" y="302" type="curve" smooth="yes"/>
      <point x="61" y="282"/>
      <point x="51" y="238"/>
      <point x="48" y="218" type="curve" smooth="yes"/>
      <point x="25" y="89"/>
      <point x="78" y="-10"/>
    </contour>
    <contour>
      <point x="234" y="48" type="curve" smooth="yes"/>
      <point x="141" y="48"/>
      <point x="90" y="109"/>
      <point x="110" y="223" type="curve" smooth="yes"/>
      <point x="113" y="243"/>
      <point x="121" y="277"/>
      <point x="126" y="297" type="curve" smooth="yes"/>
      <point x="154" y="411"/>
      <point x="231" y="472"/>
      <point x="324" y="472" type="curve" smooth="yes"/>
      <point x="417" y="472"/>
      <point x="468" y="411"/>
      <point x="448" y="297" type="curve" smooth="yes"/>
      <point x="445" y="277"/>
      <point x="437" y="243"/>
      <point x="432" y="223" type="curve" smooth="yes"/>
      <point x="404" y="109"/>
      <point x="327" y="48"/>
    </contour>
  </outline>
</glyph>
<glyph name="gimel-hb" format="2">
  <advance width="430"/>
  <unicode hex="05D2"/>
  <guideline x="305" y="571" angle="0"/>
  <anchor x="176" y="0" name="bottom"/>
  <anchor x="-24" y="0" name="bottomleft"/>
  <anchor x="163" y="260" name="center"/>
  <anchor x="317" y="520" name="top"/>
  <anchor x="87" y="520" name="topleft"/>
  <outline>
    <contour>
      <point x="302" y="0" type="curve" smooth="yes"/>
      <point x="319" y="0" type="line" smooth="yes"/>
      <point x="332" y="0"/>
      <point x="345" y="9"/>
      <point x="346" y="22" type="curve" smooth="yes"/>
      <point x="352" y="337" type="line" smooth="yes"/>
      <point x="353" y="489"/>
      <point x="327" y="571"/>
      <point x="209" y="571" type="curve" smooth="yes"/>
      <point x="172" y="571" type="line" smooth="yes"/>
      <point x="159" y="571"/>
      <point x="148" y="562"/>
      <point x="145" y="549" type="curve" smooth="yes"/>
      <point x="142" y="535" type="line" smooth="yes"/>
      <point x="139" y="522"/>
      <point x="146" y="513"/>
      <point x="159" y="513" type="curve" smooth="yes"/>
      <point x="196" y="513" type="line" smooth="yes"/>
      <point x="279" y="513"/>
      <point x="291" y="449"/>
      <point x="290" y="332" type="curve" smooth="yes"/>
      <point x="285" y="22" type="line" smooth="yes"/>
      <point x="285" y="9"/>
      <point x="289" y="0"/>
    </contour>
    <contour>
      <point x="172" y="51" type="curve" smooth="yes"/>
      <point x="247" y="96"/>
      <point x="334" y="196"/>
      <point x="350" y="271" type="curve"/>
      <point x="289" y="259" type="line"/>
      <point x="286" y="220"/>
      <point x="207" y="140"/>
      <point x="149" y="106" type="curve" smooth="yes"/>
      <point x="110" y="83"/>
      <point x="50" y="64"/>
      <point x="35" y="59" type="curve" smooth="yes"/>
      <point x="18" y="53"/>
      <point x="11" y="44"/>
      <point x="8" y="34" type="curve" smooth="yes"/>
      <point x="3" y="7" type="line" smooth="yes"/>
      <point x="0" y="-7"/>
      <point x="10" y="-10"/>
      <point x="24" y="-8" type="curve" smooth="yes"/>
      <point x="72" y="1"/>
      <point x="116" y="17"/>
    </contour>
  </outline>
</glyph>
<glyph name="dalet-hb" format="2">
  <advance width="556"/>
  <unicode hex="05D3"/>
  <guideline x="327" y="571" angle="0"/>
  <guideline x="357"/>
  <guideline x="823"/>
  <anchor x="316" y="0" name="bottom"/>
  <anchor x="-2" y="0" name="bottomleft"/>
  <anchor x="203" y="260" name="center"/>
  <anchor x="339" y="520" name="top"/>
  <anchor x="109" y="520" name="topleft"/>
  <outline>
    <contour>
      <point x="299" y="0" type="curve" smooth="yes"/>
      <point x="316" y="0" type="line" smooth="yes"/>
      <point x="329" y="0"/>
      <point x="340" y="9"/>
      <point x="343" y="22" type="curve"/>
      <point x="422" y="395" type="line" smooth="yes"/>
      <point x="438" y="468"/>
      <point x="471" y="523"/>
      <point x="505" y="523" type="curve"/>
      <point x="433" y="523" type="line"/>
      <point x="410" y="523"/>
      <point x="378" y="476"/>
      <point x="362" y="400" type="curve" smooth="yes"/>
      <point x="282" y="22" type="line" smooth="yes"/>
      <point x="279" y="9"/>
      <point x="286" y="0"/>
    </contour>
    <contour>
      <point x="122" y="513" type="curve" smooth="yes"/>
      <point x="544" y="513" type="line" smooth="yes"/>
      <point x="557" y="513"/>
      <point x="568" y="522"/>
      <point x="571" y="535" type="curve" smooth="yes"/>
      <point x="574" y="549" type="line" smooth="yes"/>
      <point x="577" y="562"/>
      <point x="570" y="571"/>
      <point x="557" y="571" type="curve" smooth="yes"/>
      <point x="135" y="571" type="line" smooth="yes"/>
      <point x="122" y="571"/>
      <point x="111" y="562"/>
      <point x="108" y="549" type="curve" smooth="yes"/>
      <point x="105" y="535" type="line" smooth="yes"/>
      <point x="102" y="522"/>
      <point x="109" y="513"/>
    </contour>
  </outline>
</glyph>
<glyph name="he-hb" format="2">
  <advance width="608"/>
  <unicode hex="05D4"/>
  <guideline x="370"/>
  <anchor x="255" y="0" name="bottom"/>
  <anchor x="-29" y="0" name="bottomleft"/>
  <anchor x="310" y="260" name="center"/>
  <anchor x="366" y="520" name="top"/>
  <anchor x="82" y="520" name="topleft"/>
  <outline>
    <contour>
      <point x="442" y="0" type="curve" smooth="yes"/>
      <point x="459" y="0" type="line" smooth="yes"/>
      <point x="472" y="0"/>
      <point x="483" y="9"/>
      <point x="486" y="22" type="curve" smooth="yes"/>
      <point x="551" y="327" type="line" smooth="yes"/>
      <point x="584" y="482"/>
      <point x="526" y="571"/>
      <point x="356" y="571" type="curve" smooth="yes"/>
      <point x="179" y="571" type="line" smooth="yes"/>
      <point x="166" y="571"/>
      <point x="155" y="562"/>
      <point x="152" y="549" type="curve"/>
      <point x="149" y="535" type="line" smooth="yes"/>
      <point x="146" y="522"/>
      <point x="153" y="513"/>
      <point x="166" y="513" type="curve" smooth="yes"/>
      <point x="338" y="513" type="line" smooth="yes"/>
      <point x="473" y="513"/>
      <point x="514" y="442"/>
      <point x="489" y="322" type="curve" smooth="yes"/>
      <point x="425" y="22" type="line" smooth="yes"/>
      <point x="422" y="9"/>
      <point x="429" y="0"/>
    </contour>
    <contour>
      <point x="57" y="0" type="curve" smooth="yes"/>
      <point x="74" y="0" type="line" smooth="yes"/>
      <point x="87" y="0"/>
      <point x="98" y="9"/>
      <point x="101" y="22" type="curve" smooth="yes"/>
      <point x="175" y="373" type="line" smooth="yes"/>
      <point x="178" y="386"/>
      <point x="171" y="395"/>
      <point x="158" y="395" type="curve" smooth="yes"/>
      <point x="141" y="395" type="line" smooth="yes"/>
      <point x="128" y="395"/>
      <point x="117" y="386"/>
      <point x="114" y="373" type="curve" smooth="yes"/>
      <point x="40" y="22" type="line" smooth="yes"/>
      <point x="37" y="9"/>
      <point x="44" y="0"/>
    </contour>
  </outline>
</glyph>
<glyph name="tet-hb" format="2">
  <advance width="624"/>
  <unicode hex="05D8"/>
  <guideline x="300" y="571" angle="0"/>
  <guideline x="300" y="581" angle="0"/>
  <guideline x="496"/>
  <guideline x="365"/>
  <anchor x="273" y="0" name="bottom"/>
  <anchor x="-29" y="0" name="bottomleft"/>
  <anchor x="328" y="260" name="center"/>
  <anchor x="384" y="520" name="top"/>
  <anchor x="82" y="520" name="topleft"/>
  <outline>
    <contour>
      <point x="270" y="-10" type="curve" smooth="yes"/>
      <point x="445" y="-10"/>
      <point x="525" y="69"/>
      <point x="562" y="224" type="curve"/>
      <point x="567" y="244"/>
      <point x="585" y="327"/>
      <point x="588" y="347" type="curve" smooth="yes"/>
      <point x="618" y="507"/>
      <point x="559" y="576"/>
      <point x="438" y="576" type="curve"/>
      <point x="389" y="576"/>
      <point x="357" y="565"/>
      <point x="324" y="546" type="curve" smooth="yes"/>
      <point x="312" y="539"/>
      <point x="311" y="530"/>
      <point x="308" y="518" type="curve" smooth="yes"/>
      <point x="306" y="505" type="line" smooth="yes"/>
      <point x="303" y="492"/>
      <point x="317" y="485"/>
      <point x="330" y="492" type="curve" smooth="yes"/>
      <point x="357" y="508"/>
      <point x="396" y="518"/>
      <point x="420" y="518" type="curve" smooth="yes"/>
      <point x="503" y="518"/>
      <point x="549" y="467"/>
      <point x="526" y="342" type="curve" smooth="yes"/>
      <point x="522" y="322"/>
      <point x="507" y="249"/>
      <point x="502" y="229" type="curve" smooth="yes"/>
      <point x="473" y="109"/>
      <point x="407" y="48"/>
      <point x="282" y="48" type="curve" smooth="yes"/>
      <point x="157" y="48"/>
      <point x="117" y="119"/>
      <point x="142" y="239" type="curve" smooth="yes"/>
      <point x="208" y="549" type="line" smooth="yes"/>
      <point x="211" y="562"/>
      <point x="204" y="571"/>
      <point x="191" y="571" type="curve" smooth="yes"/>
      <point x="174" y="571" type="line" smooth="yes"/>
      <point x="161" y="571"/>
      <point x="150" y="562"/>
      <point x="147" y="549" type="curve" smooth="yes"/>
      <point x="80" y="234" type="line" smooth="yes"/>
      <point x="47" y="79"/>
      <point x="95" y="-10"/>
    </contour>
  </outline>
</glyph>
<glyph name="yod-hb" format="2">
  <advance width="213"/>
  <unicode hex="05D9"/>
  <guideline x="300" y="240" angle="0"/>
  <anchor x="58" y="0" name="bottom"/>
  <anchor x="-29" y="0" name="bottomleft"/>
  <anchor x="23" y="260" name="center"/>
  <anchor x="169" y="520" name="top"/>
  <anchor x="82" y="520" name="topleft"/>
  <outline>
    <contour>
      <point x="98" y="230" type="curve" smooth="yes"/>
      <point x="115" y="230" type="line" smooth="yes"/>
      <point x="128" y="230"/>
      <point x="139" y="239"/>
      <point x="142" y="252" type="curve" smooth="yes"/>
      <point x="205" y="549" type="line"/>
      <point x="208" y="562"/>
      <point x="201" y="571"/>
      <point x="188" y="571" type="curve" smooth="yes"/>
      <point x="171" y="571" type="line" smooth="yes"/>
      <point x="158" y="571"/>
      <point x="147" y="562"/>
      <point x="144" y="549" type="curve" smooth="yes"/>
      <point x="81" y="252" type="line" smooth="yes"/>
      <point x="78" y="239"/>
      <point x="85" y="230"/>
    </contour>
  </outline>
</glyph>
<glyph name="mem-hb" format="2">
  <advance width="601"/>
  <unicode hex="05DE"/>
  <guideline x="337"/>
  <guideline x="863"/>
  <anchor x="261" y="0" name="bottom"/>
  <anchor x="-42" y="0" name="bottomleft"/>
  <anchor x="300" y="260" name="center"/>
  <anchor x="356" y="520" name="top"/>
  <anchor x="69" y="520" name="topleft"/>
  <outline>
    <contour>
      <point x="371" y="513" type="line"/>
      <point x="457" y="513"/>
      <point x="506" y="435"/>
      <point x="482" y="322" type="curve" smooth="yes"/>
      <point x="426" y="58" type="line"/>
      <point x="212" y="58" type="line" smooth="yes"/>
      <point x="199" y="58"/>
      <point x="188" y="49"/>
      <point x="185" y="36" type="curve" smooth="yes"/>
      <point x="182" y="22" type="line" smooth="yes"/>
      <point x="179" y="9"/>
      <point x="186" y="0"/>
      <point x="199" y="0" type="curve" smooth="yes"/>
      <point x="452" y="0" type="line" smooth="yes"/>
      <point x="465" y="0"/>
      <point x="476" y="9"/>
      <point x="479" y="22" type="curve" smooth="yes"/>
      <point x="544" y="327" type="line" smooth="yes"/>
      <point x="575" y="475"/>
      <point x="509" y="571"/>
      <point x="389" y="571" type="curve"/>
      <point x="161" y="571" type="line" smooth="yes"/>
      <point x="148" y="571"/>
      <point x="137" y="562"/>
      <point x="134" y="549" type="curve" smooth="yes"/>
      <point x="131" y="535" type="line" smooth="yes"/>
      <point x="128" y="522"/>
      <point x="135" y="513"/>
      <point x="148" y="513" type="curve" smooth="yes"/>
    </contour>
    <contour>
      <point x="29" y="0" type="curve" smooth="yes"/>
      <point x="47" y="0" type="line" smooth="yes"/>
      <point x="59" y="0"/>
      <point x="72" y="10"/>
      <point x="77" y="23" type="curve" smooth="yes"/>
      <point x="258" y="523" type="line"/>
      <point x="264" y="535"/>
      <point x="258" y="546"/>
      <point x="245" y="547" type="curve" smooth="yes"/>
      <point x="229" y="550" type="line" smooth="yes"/>
      <point x="218" y="552"/>
      <point x="205" y="545"/>
      <point x="200" y="532" type="curve" smooth="yes"/>
      <point x="16" y="23" type="line" smooth="yes"/>
      <point x="11" y="10"/>
      <point x="17" y="0"/>
    </contour>
  </outline>
</glyph>
<glyph name="quoteleft" format="2">
  <advance width="223"/>
  <unicode hex="2018"/>
  <outline>
    <contour>
      <point x="200" y="569" type="curve" smooth="yes"/>
      <point x="245" y="689" type="line" smooth="yes"/>
      <point x="250" y="701"/>
      <point x="246" y="710"/>
      <point x="235" y="710" type="curve" smooth="yes"/>
      <point x="218" y="710" type="line" smooth="yes"/>
      <point x="203" y="710"/>
      <point x="196" y="703"/>
      <point x="188" y="689" type="curve" smooth="yes"/>
      <point x="116" y="567" type="line" smooth="yes"/>
      <point x="110" y="557"/>
      <point x="107" y="542"/>
      <point x="125" y="542" type="curve" smooth="yes"/>
      <point x="170" y="542" type="line" smooth="yes"/>
      <point x="186" y="542"/>
      <point x="194" y="553"/>
    </contour>
  </outline>
</glyph>
<glyph name="ellipsis" format="2">
  <advance width="564"/>
  <unicode hex="2026"/>
  <outline>
    <contour>
      <point x="46" y="0" type="curve" smooth="yes"/>
      <point x="94" y="0" type="line" smooth="yes"/>
      <point x="107" y="0"/>
      <point x="119" y="9"/>
      <point x="122" y="22" type="curve" smooth="yes"/>
      <point x="132" y="70" type="line" smooth="yes"/>
      <point x="135" y="83"/>
      <point x="127" y="93"/>
      <point x="114" y="93" type="curve" smooth="yes"/>
      <point x="66" y="93" type="line" smooth="yes"/>
      <point x="53" y="93"/>
      <point x="42" y="83"/>
      <point x="39" y="70" type="curve" smooth="yes"/>
      <point x="29" y="22" type="line" smooth="yes"/>
      <point x="26" y="9"/>
      <point x="33" y="0"/>
    </contour>
    <contour>
      <point x="209" y="0" type="curve" smooth="yes"/>
      <point x="257" y="0" type="line" smooth="yes"/>
      <point x="270" y="0"/>
      <point x="282" y="9"/>
      <point x="285" y="22" type="curve" smooth="yes"/>
      <point x="295" y="70" type="line" smooth="yes"/>
      <point x="298" y="83"/>
      <point x="290" y="93"/>
      <point x="277" y="93" type="curve" smooth="yes"/>
      <point x="229" y="93" type="line" smooth="yes"/>
      <point x="216" y="93"/>
      <point x="205" y="83"/>
      <point x="202" y="70" type="curve" smooth="yes"/>
      <point x="192" y="22" type="line" smooth="yes"/>
      <point x="189" y="9"/>
      <point x="196" y="0"/>
    </contour>
    <contour>
      <point x="372" y="0" type="curve" smooth="yes"/>
      <point x="420" y="0" type="line" smooth="yes"/>
      <point x="433" y="0"/>
      <point x="445" y="9"/>
      <point x="448" y="22" type="curve" smooth="yes"/>
      <point x="458" y="70" type="line" smooth="yes"/>
      <point x="461" y="83"/>
      <point x="453" y="93"/>
      <point x="440" y="93" type="curve" smooth="yes"/>
      <point x="392" y="93" type="line" smooth="yes"/>
      <point x="379" y="93"/>
      <point x="368" y="83"/>
      <point x="365" y="70" type="curve" smooth="yes"/>
      <point x="355" y="22" type="line" smooth="yes"/>
      <point x="352" y="9"/>
      <point x="359" y="0"/>
    </contour>
  </outline>
</glyph>
<glyph name="threeinferior" format="2">
  <advance width="336"/>
  <unicode hex="2083"/>
  <guideline x="-150" y="-73" angle="0"/>
  <guideline x="-150" y="-170" angle="0"/>
  <guideline x="-150" y="180" angle="0"/>
  <guideline x="-129"/>
  <guideline x="161"/>
  <outline>
    <contour>
      <point x="77" y="-175" type="curve" smooth="yes"/>
      <point x="165" y="-175"/>
      <point x="222" y="-135"/>
      <point x="236" y="-69" type="curve" smooth="yes"/>
      <point x="247" y="-13"/>
      <point x="228" y="33"/>
      <point x="153" y="37" type="curve"/>
      <point x="244" y="107" type="line" smooth="yes"/>
      <point x="261" y="121"/>
      <point x="265" y="131"/>
      <point x="268" y="146" type="curve" smooth="yes"/>
      <point x="271" y="158" type="line" smooth="yes"/>
      <point x="274" y="171"/>
      <point x="266" y="180"/>
      <point x="253" y="180" type="curve" smooth="yes"/>
      <point x="55" y="180" type="line" smooth="yes"/>
      <point x="42" y="180"/>
      <point x="32" y="171"/>
      <point x="29" y="158" type="curve" smooth="yes"/>
      <point x="26" y="146" type="line" smooth="yes"/>
      <point x="23" y="133"/>
      <point x="31" y="124"/>
      <point x="44" y="124" type="curve" smooth="yes"/>
      <point x="186" y="124" type="line"/>
      <point x="79" y="43" type="line" smooth="yes"/>
      <point x="71" y="36"/>
      <point x="64" y="29"/>
      <point x="62" y="20" type="curve" smooth="yes"/>
      <point x="59" y="3" type="line" smooth="yes"/>
      <point x="56" y="-10"/>
      <point x="63" y="-19"/>
      <point x="76" y="-19" type="curve" smooth="yes"/>
      <point x="116" y="-19" type="line" smooth="yes"/>
      <point x="159" y="-19"/>
      <point x="186" y="-31"/>
      <point x="178" y="-69" type="curve" smooth="yes"/>
      <point x="171" y="-101"/>
      <point x="133" y="-119"/>
      <point x="89" y="-119" type="curve" smooth="yes"/>
      <point x="33" y="-119"/>
      <point x="28" y="-105"/>
      <point x="20" y="-90" type="curve" smooth="yes"/>
      <point x="17" y="-83"/>
      <point x="10" y="-76"/>
      <point x="1" y="-76" type="curve" smooth="yes"/>
      <point x="-19" y="-76" type="line" smooth="yes"/>
      <point x="-25" y="-76"/>
      <point x="-38" y="-82"/>
      <point x="-40" y="-95" type="curve" smooth="yes"/>
      <point x="-46" y="-137"/>
      <point x="-11" y="-175"/>
    </contour>
  </outline>
</glyph>
<glyph name="sheqel" format="2">
  <advance width="773"/>
  <unicode hex="20AA"/>
  <outline>
    <contour>
      <point x="216" y="0" type="curve" smooth="yes"/>
      <point x="404" y="0" type="line" smooth="yes"/>
      <point x="584" y="0"/>
      <point x="659" y="89"/>
      <point x="692" y="244" type="curve" smooth="yes"/>
      <point x="757" y="549" type="line" smooth="yes"/>
      <point x="760" y="562"/>
      <point x="753" y="571"/>
      <point x="740" y="571" type="curve" smooth="yes"/>
      <point x="723" y="571" type="line" smooth="yes"/>
      <point x="710" y="571"/>
      <point x="699" y="562"/>
      <point x="696" y="549" type="curve" smooth="yes"/>
      <point x="632" y="249" type="line" smooth="yes"/>
      <point x="607" y="129"/>
      <point x="536" y="58"/>
      <point x="401" y="58" type="curve" smooth="yes"/>
      <point x="267" y="58" type="line"/>
      <point x="337" y="390" type="line" smooth="yes"/>
      <point x="340" y="403"/>
      <point x="333" y="412"/>
      <point x="320" y="412" type="curve" smooth="yes"/>
      <point x="303" y="412" type="line" smooth="yes"/>
      <point x="290" y="412"/>
      <point x="279" y="403"/>
      <point x="276" y="390" type="curve"/>
      <point x="198" y="22" type="line"/>
      <point x="195" y="9"/>
      <point x="203" y="0"/>
    </contour>
    <contour>
      <point x="36" y="0" type="curve" smooth="yes"/>
      <point x="53" y="0" type="line" smooth="yes"/>
      <point x="66" y="0"/>
      <point x="76" y="9"/>
      <point x="79" y="22" type="curve" smooth="yes"/>
      <point x="184" y="513" type="line"/>
      <point x="318" y="513" type="line" smooth="yes"/>
      <point x="453" y="513"/>
      <point x="493" y="442"/>
      <point x="468" y="322" type="curve" smooth="yes"/>
      <point x="438" y="182" type="line" smooth="yes"/>
      <point x="435" y="169"/>
      <point x="443" y="160"/>
      <point x="456" y="160" type="curve" smooth="yes"/>
      <point x="473" y="160" type="line" smooth="yes"/>
      <point x="486" y="160"/>
      <point x="496" y="169"/>
      <point x="499" y="182" type="curve" smooth="yes"/>
      <point x="530" y="327" type="line" smooth="yes"/>
      <point x="563" y="482"/>
      <point x="485" y="571"/>
      <point x="325" y="571" type="curve" smooth="yes"/>
      <point x="157" y="571" type="line" smooth="yes"/>
      <point x="144" y="571"/>
      <point x="133" y="562"/>
      <point x="130" y="549" type="curve"/>
      <point x="18" y="22" type="line" smooth="yes"/>
      <point x="15" y="9"/>
      <point x="23" y="0"/>
    </contour>
  </outline>
</glyph>
<glyph name="five.otlf" format="2">
  <advance width="600"/>
  <outline>
    <contour>
      <point x="243" y="-10" type="curve" smooth="yes"/>
      <point x="376" y="-10"/>
      <point x="501" y="68"/>
      <point x="534" y="224" type="curve" smooth="yes"/>
      <point x="565" y="370"/>
      <point x="473" y="448"/>
      <point x="340" y="448" type="curve" smooth="yes"/>
      <point x="265" y="448"/>
      <point x="220" y="423"/>
      <point x="204" y="414" type="curve"/>
      <point x="273" y="640" type="line"/>
      <point x="560" y="640" type="line" smooth="yes"/>
      <point x="573" y="640"/>
      <point x="584" y="649"/>
      <point x="587" y="662" type="curve"/>
      <point x="590" y="678" type="line"/>
      <point x="593" y="691"/>
      <point x="586" y="700"/>
      <point x="573" y="700" type="curve" smooth="yes"/>
      <point x="247" y="700" type="line" smooth="yes"/>
      <point x="234" y="700"/>
      <point x="224" y="691"/>
      <point x="220" y="677" type="curve" smooth="yes"/>
      <point x="121" y="350" type="line" smooth="yes"/>
      <point x="117" y="338"/>
      <point x="126" y="328"/>
      <point x="138" y="328" type="curve" smooth="yes"/>
      <point x="156" y="328" type="line" smooth="yes"/>
      <point x="198" y="328"/>
      <point x="228" y="388"/>
      <point x="328" y="388" type="curve" smooth="yes"/>
      <point x="426" y="388"/>
      <point x="493" y="327"/>
      <point x="471" y="224" type="curve" smooth="yes"/>
      <point x="447" y="111"/>
      <point x="354" y="50"/>
      <point x="256" y="50" type="curve" smooth="yes"/>
      <point x="184" y="50"/>
      <point x="118" y="84"/>
      <point x="116" y="171" type="curve" smooth="yes"/>
      <point x="115" y="191"/>
      <point x="106" y="194"/>
      <point x="95" y="194" type="curve" smooth="yes"/>
      <point x="76" y="194" type="line" smooth="yes"/>
      <point x="64" y="194"/>
      <point x="54" y="187"/>
      <point x="52" y="175" type="curve" smooth="yes"/>
      <point x="37" y="83"/>
      <point x="97" y="-10"/>
    </contour>
  </outline>
</glyph>
<glyph name="guillemetleft.case" format="2">
  <advance width="615"/>
  <guideline x="139"/>
  <outline>
    <contour>
      <point x="502" y="92" type="curve" smooth="yes"/>
      <point x="514" y="92"/>
      <point x="523" y="100"/>
      <point x="526" y="112" type="curve" smooth="yes"/>
      <point x="530" y="129" type="line" smooth="yes"/>
      <point x="533" y="145"/>
      <point x="530" y="152"/>
      <point x="519" y="165" type="curve" smooth="yes"/>
      <point x="385" y="329" type="line"/>
      <point x="589" y="493" type="line"/>
      <point x="605" y="506"/>
      <point x="611" y="513"/>
      <point x="615" y="529" type="curve" smooth="yes"/>
      <point x="618" y="546" type="line" smooth="yes"/>
      <point x="621" y="558"/>
      <point x="615" y="566"/>
      <point x="603" y="566" type="curve" smooth="yes"/>
      <point x="595" y="566"/>
      <point x="585" y="561"/>
      <point x="576" y="554" type="curve" smooth="yes"/>
      <point x="349" y="372" type="line" smooth="yes"/>
      <point x="334" y="359"/>
      <point x="328" y="348"/>
      <point x="325" y="337" type="curve"/>
      <point x="321" y="321" type="line"/>
      <point x="320" y="310"/>
      <point x="321" y="299"/>
      <point x="331" y="286" type="curve" smooth="yes"/>
      <point x="480" y="104" type="line" smooth="yes"/>
      <point x="487" y="97"/>
      <point x="494" y="92"/>
    </contour>
    <contour>
      <point x="253" y="92" type="curve" smooth="yes"/>
      <point x="265" y="92"/>
      <point x="274" y="100"/>
      <point x="277" y="112" type="curve" smooth="yes"/>
      <point x="281" y="129" type="line" smooth="yes"/>
      <point x="284" y="145"/>
      <point x="281" y="152"/>
      <point x="270" y="165" type="curve" smooth="yes"/>
      <point x="136" y="329" type="line"/>
      <point x="340" y="493" type="line"/>
      <point x="356" y="506"/>
      <point x="362" y="513"/>
      <point x="366" y="529" type="curve" smooth="yes"/>
      <point x="369" y="546" type="line" smooth="yes"/>
      <point x="372" y="558"/>
      <point x="366" y="566"/>
      <point x="354" y="566" type="curve" smooth="yes"/>
      <point x="346" y="566"/>
      <point x="336" y="561"/>
      <point x="327" y="554" type="curve" smooth="yes"/>
      <point x="100" y="372" type="line" smooth="yes"/>
      <point x="85" y="359"/>
      <point x="79" y="348"/>
      <point x="76" y="337" type="curve"/>
      <point x="72" y="321" type="line"/>
      <point x="71" y="310"/>
      <point x="72" y="299"/>
      <point x="82" y="286" type="curve" smooth="yes"/>
      <point x="231" y="104" type="line" smooth="yes"/>
      <point x="238" y="97"/>
      <point x="245" y="92"/>
    </contour>
  </outline>
</glyph>
<glyph name="pedagesh-hb.black" format="2">
  <advance width="563"/>
  <guideline x="310" y="571" angle="0"/>
  <guideline x="310" y="336" angle="0"/>
  <anchor x="230" y="0" name="bottom"/>
  <anchor x="-20" y="0" name="bottomleft"/>
  <anchor x="315" y="260" name="center"/>
  <anchor x="341" y="520" name="top"/>
  <anchor x="91" y="520" name="topleft"/>
  <outline>
    <contour>
      <point x="304" y="226" type="curve" smooth="yes"/>
      <point x="317" y="226" type="line" smooth="yes"/>
      <point x="330" y="226"/>
      <point x="341" y="235"/>
      <point x="344" y="248" type="curve" smooth="yes"/>
      <point x="357" y="311" type="line" smooth="yes"/>
      <point x="360" y="324"/>
      <point x="353" y="333"/>
      <point x="340" y="333" type="curve" smooth="yes"/>
      <point x="327" y="333" type="line" smooth="yes"/>
      <point x="314" y="333"/>
      <point x="303" y="324"/>
      <point x="300" y="311" type="curve" smooth="yes"/>
      <point x="287" y="248" type="line" smooth="yes"/>
      <point x="284" y="235"/>
      <point x="291" y="226"/>
    </contour>
    <component base="pe-hb"/>
  </outline>
</glyph>
